<svg width="611" height="392" viewBox="0 0 611 392" fill="none" xmlns="http://www.w3.org/2000/svg">
<path d="M611 344.482H0V344.745H611V344.482Z" fill="#E0E0E0"/>
<path d="M518.263 359.245H505.297V359.508H518.263V359.245Z" fill="#E0E0E0"/>
<path d="M496.328 359.371H443.598V359.634H496.328V359.371Z" fill="#E0E0E0"/>
<path d="M378.417 356.867H289.431V357.13H378.417V356.867Z" fill="#E0E0E0"/>
<path d="M238.241 361.434H210.001V361.697H238.241V361.434Z" fill="#E0E0E0"/>
<path d="M144.135 356.992H105.251V357.255H144.135V356.992Z" fill="#E0E0E0"/>
<path d="M187.259 356.992H150.917V357.255H187.259V356.992Z" fill="#E0E0E0"/>
<path d="M116.897 352.396H79.7844V352.659H116.897V352.396Z" fill="#E0E0E0"/>
<path d="M289.614 297.556H53.6579C51.8094 297.553 50.0378 296.919 48.7319 295.792C47.426 294.666 46.6925 293.139 46.6925 291.548V5.95532C46.7086 4.37288 47.4492 2.8598 48.7533 1.74474C50.0575 0.629684 51.82 0.00271082 53.6579 0H289.614C291.464 0 293.239 0.632977 294.548 1.75968C295.856 2.88639 296.592 4.41453 296.592 6.00793V291.548C296.592 293.141 295.856 294.669 294.548 295.796C293.239 296.923 291.464 297.556 289.614 297.556ZM53.6579 0.210436C51.8905 0.213223 50.1965 0.819715 48.9479 1.89679C47.6993 2.97386 46.998 4.43351 46.998 5.95532V291.548C46.998 293.07 47.6993 294.529 48.9479 295.606C50.1965 296.683 51.8905 297.29 53.6579 297.293H289.614C291.382 297.29 293.078 296.684 294.328 295.607C295.579 294.53 296.283 293.071 296.286 291.548V5.95532C296.283 4.43254 295.579 2.97292 294.328 1.89615C293.078 0.819373 291.382 0.213218 289.614 0.210436H53.6579Z" fill="#E0E0E0"/>
<path d="M553.945 297.556H317.977C316.127 297.553 314.354 296.919 313.046 295.793C311.738 294.667 311.002 293.14 310.999 291.548V5.95532C311.018 4.37192 311.761 2.85885 313.068 1.74408C314.374 0.629316 316.137 0.00268125 317.977 0H553.945C555.781 0.00547605 557.54 0.633673 558.841 1.74843C560.143 2.86319 560.882 4.37469 560.898 5.95532V291.548C560.898 293.138 560.166 294.663 558.863 295.789C557.56 296.915 555.791 297.55 553.945 297.556ZM317.977 0.210436C316.208 0.213218 314.513 0.819373 313.262 1.89615C312.012 2.97292 311.308 4.43254 311.304 5.95532V291.548C311.308 293.071 312.012 294.53 313.262 295.607C314.513 296.684 316.208 297.29 317.977 297.293H553.945C555.713 297.29 557.409 296.684 558.659 295.607C559.91 294.53 560.614 293.071 560.617 291.548V5.95532C560.614 4.43254 559.91 2.97292 558.659 1.89615C557.409 0.819373 555.713 0.213218 553.945 0.210436H317.977Z" fill="#E0E0E0"/>
<path d="M526.047 21.5376H82.5095C77.4343 21.5376 73.3201 25.0801 73.3201 29.45V316.168C73.3201 320.538 77.4343 324.081 82.5095 324.081H526.047C531.122 324.081 535.236 320.538 535.236 316.168V29.45C535.236 25.0801 531.122 21.5376 526.047 21.5376Z" fill="#E0E0E0"/>
<path d="M528.491 21.5376H84.9535C79.8783 21.5376 75.764 25.0801 75.764 29.45V316.168C75.764 320.538 79.8783 324.081 84.9535 324.081H528.491C533.566 324.081 537.68 320.538 537.68 316.168V29.45C537.68 25.0801 533.566 21.5376 528.491 21.5376Z" fill="#52565A"/>
<path d="M75.764 41.9927V316.169C75.7737 318.264 76.7454 320.271 78.467 321.751C80.1886 323.231 82.5204 324.065 84.9535 324.071H528.539C530.975 324.065 533.308 323.23 535.03 321.747C536.752 320.265 537.722 318.255 537.729 316.159V41.9927H75.764Z" fill="#E0E0E0"/>
<path d="M535.981 52.5137H77.4625V313.559H535.981V52.5137Z" fill="#404040"/>
<path d="M519.765 289.675H93.6783C93.6383 289.672 93.6009 289.657 93.5737 289.631C93.5466 289.606 93.5315 289.573 93.5316 289.538V69.4436C93.5316 69.4271 93.5354 69.4106 93.5428 69.3953C93.5501 69.38 93.561 69.3661 93.5746 69.3544C93.5882 69.3426 93.6043 69.3333 93.6221 69.327C93.6399 69.3207 93.659 69.3174 93.6783 69.3174H519.765C519.804 69.3174 519.841 69.3307 519.869 69.3544C519.896 69.378 519.912 69.4102 519.912 69.4436V289.538C519.913 289.556 519.911 289.573 519.904 289.59C519.898 289.606 519.887 289.621 519.873 289.634C519.86 289.647 519.843 289.657 519.824 289.664C519.806 289.671 519.785 289.675 519.765 289.675ZM93.8371 289.412H519.606V69.5804H93.8371V289.412Z" fill="#E0E0E0"/>
<path d="M95.9269 36.5624C94.8393 36.5624 93.7761 36.2847 92.8718 35.7644C91.9675 35.2442 91.2627 34.5047 90.8464 33.6395C90.4302 32.7743 90.3213 31.8223 90.5335 30.9039C90.7457 29.9854 91.2694 29.1417 92.0385 28.4796C92.8075 27.8174 93.7874 27.3664 94.8541 27.1838C95.9208 27.0011 97.0264 27.0948 98.0312 27.4532C99.036 27.8116 99.8949 28.4184 100.499 29.1971C101.103 29.9757 101.426 30.8911 101.426 31.8276C101.423 33.0825 100.842 34.2852 99.8117 35.1725C98.7811 36.0599 97.3843 36.5596 95.9269 36.5624ZM95.9269 28.145C95.0809 28.145 94.254 28.3609 93.5507 28.7656C92.8473 29.1702 92.2991 29.7454 91.9754 30.4183C91.6517 31.0912 91.567 31.8317 91.732 32.546C91.8971 33.2604 92.3044 33.9166 92.9026 34.4316C93.5007 34.9466 94.2628 35.2973 95.0925 35.4394C95.9221 35.5815 96.7821 35.5086 97.5636 35.2299C98.3451 34.9511 99.0131 34.4791 99.4831 33.8735C99.953 33.2679 100.204 32.5559 100.204 31.8276C100.204 30.8509 99.7533 29.9142 98.9512 29.2236C98.1491 28.5329 97.0612 28.145 95.9269 28.145Z" fill="#404040"/>
<path d="M113.243 36.5624C112.155 36.5624 111.092 36.2847 110.188 35.7644C109.283 35.2442 108.579 34.5047 108.162 33.6395C107.746 32.7743 107.637 31.8223 107.849 30.9039C108.062 29.9854 108.585 29.1417 109.354 28.4796C110.123 27.8174 111.103 27.3664 112.17 27.1838C113.237 27.0011 114.342 27.0948 115.347 27.4532C116.352 27.8116 117.211 28.4184 117.815 29.1971C118.419 29.9757 118.742 30.8911 118.742 31.8276C118.739 33.0825 118.158 34.2852 117.128 35.1725C116.097 36.0599 114.7 36.5596 113.243 36.5624ZM113.243 28.145C112.397 28.145 111.57 28.3609 110.867 28.7656C110.163 29.1702 109.615 29.7454 109.291 30.4183C108.968 31.0912 108.883 31.8317 109.048 32.546C109.213 33.2604 109.62 33.9166 110.218 34.4316C110.817 34.9466 111.579 35.2973 112.408 35.4394C113.238 35.5815 114.098 35.5086 114.88 35.2299C115.661 34.9511 116.329 34.4791 116.799 33.8735C117.269 33.2679 117.52 32.5559 117.52 31.8276C117.52 30.8509 117.069 29.9142 116.267 29.2236C115.465 28.5329 114.377 28.145 113.243 28.145Z" fill="#404040"/>
<path d="M130.571 36.5624C129.483 36.5624 128.42 36.2847 127.516 35.7644C126.611 35.2442 125.906 34.5047 125.49 33.6395C125.074 32.7743 124.965 31.8223 125.177 30.9039C125.39 29.9854 125.913 29.1417 126.682 28.4796C127.451 27.8174 128.431 27.3664 129.498 27.1838C130.565 27.0011 131.67 27.0948 132.675 27.4532C133.68 27.8116 134.539 28.4184 135.143 29.1971C135.747 29.9757 136.07 30.8911 136.07 31.8276C136.066 33.0825 135.486 34.2852 134.455 35.1725C133.425 36.0599 132.028 36.5596 130.571 36.5624ZM130.571 28.145C129.725 28.145 128.898 28.3609 128.194 28.7656C127.491 29.1702 126.943 29.7454 126.619 30.4183C126.296 31.0912 126.211 31.8317 126.376 32.546C126.541 33.2604 126.948 33.9166 127.546 34.4316C128.145 34.9466 128.907 35.2973 129.736 35.4394C130.566 35.5815 131.426 35.5086 132.207 35.2299C132.989 34.9511 133.657 34.4791 134.127 33.8735C134.597 33.2679 134.848 32.5559 134.848 31.8276C134.848 30.8509 134.397 29.9142 133.595 29.2236C132.793 28.5329 131.705 28.145 130.571 28.145Z" fill="#404040"/>
<path d="M537.68 41.4668H75.764V42.519H537.68V41.4668Z" fill="#E0E0E0"/>
<path d="M328.217 78.4507H116.909V263.886H328.217V78.4507Z" fill="#52565A"/>
<path d="M509.305 78.4507H369.79V138.772H509.305V78.4507Z" fill="#52565A"/>
<path d="M395.928 114.688C404.702 114.688 411.814 108.564 411.814 101.009C411.814 93.455 404.702 87.3311 395.928 87.3311C387.155 87.3311 380.042 93.455 380.042 101.009C380.042 108.564 387.155 114.688 395.928 114.688Z" fill="#404040"/>
<path d="M495.313 87.3311H426.478V92.9392H495.313V87.3311Z" fill="#404040"/>
<path d="M471.154 97.6206H426.478V103.229H471.154V97.6206Z" fill="#404040"/>
<path d="M509.305 161.33H369.79V313.559H509.305V161.33Z" fill="#52565A"/>
<path d="M435.496 172.809H375.985V224.05H435.496V172.809Z" fill="#404040"/>
<path d="M435.961 230.564H376.449V281.805H435.961V230.564Z" fill="#404040"/>
<path d="M503.122 172.809H443.61V199.987H503.122V172.809Z" fill="#404040"/>
<path d="M503.122 206.51H443.61V257.751H503.122V206.51Z" fill="#404040"/>
<path d="M435.961 287.938H376.449V313.559H435.961V287.938Z" fill="#404040"/>
<path d="M503.122 263.886H443.61V313.559H503.122V263.886Z" fill="#404040"/>
<path d="M305.5 392C436.355 392 542.433 386.667 542.433 380.089C542.433 373.511 436.355 368.179 305.5 368.179C174.645 368.179 68.5663 373.511 68.5663 380.089C68.5663 386.667 174.645 392 305.5 392Z" fill="#3A3838"/>
<path d="M331.492 302.062H109.21C103.177 302.062 98.2854 306.274 98.2854 311.469V345.612C98.2854 350.807 103.177 355.019 109.21 355.019H331.492C337.525 355.019 342.417 350.807 342.417 345.612V311.469C342.417 306.274 337.525 302.062 331.492 302.062Z" fill="#288CEF"/>
<path d="M334.07 304.283H111.788C105.755 304.283 100.864 308.494 100.864 313.689V347.832C100.864 353.027 105.755 357.239 111.788 357.239H334.07C340.104 357.239 344.995 353.027 344.995 347.832V313.689C344.995 308.494 340.104 304.283 334.07 304.283Z" fill="#288CEF"/>
<path opacity="0.6" d="M334.07 304.283H111.788C105.755 304.283 100.864 308.494 100.864 313.689V347.832C100.864 353.027 105.755 357.239 111.788 357.239H334.07C340.104 357.239 344.995 353.027 344.995 347.832V313.689C344.995 308.494 340.104 304.283 334.07 304.283Z" fill="#FAFAFA"/>
<path d="M336.649 306.501H114.367C108.334 306.501 103.442 310.713 103.442 315.908V350.062C103.442 355.257 108.334 359.468 114.367 359.468H336.649C342.682 359.468 347.574 355.257 347.574 350.062V315.908C347.574 310.713 342.682 306.501 336.649 306.501Z" fill="#288CEF"/>
<path opacity="0.8" d="M336.649 306.501H114.367C108.334 306.501 103.442 310.713 103.442 315.908V350.062C103.442 355.257 108.334 359.468 114.367 359.468H336.649C342.682 359.468 347.574 355.257 347.574 350.062V315.908C347.574 310.713 342.682 306.501 336.649 306.501Z" fill="#FAFAFA"/>
<path d="M287.891 315.456H169.223C167.934 315.456 166.889 316.355 166.889 317.465V321.463C166.889 322.573 167.934 323.473 169.223 323.473H287.891C289.18 323.473 290.225 322.573 290.225 321.463V317.465C290.225 316.355 289.18 315.456 287.891 315.456Z" fill="#288CEF"/>
<path d="M222.38 328.977H169.223C167.934 328.977 166.889 329.876 166.889 330.986V334.985C166.889 336.094 167.934 336.994 169.223 336.994H222.38C223.669 336.994 224.714 336.094 224.714 334.985V330.986C224.714 329.876 223.669 328.977 222.38 328.977Z" fill="#288CEF"/>
<path d="M273.704 328.977H232.901C231.612 328.977 230.567 329.876 230.567 330.986V334.985C230.567 336.094 231.612 336.994 232.901 336.994H273.704C274.993 336.994 276.038 336.094 276.038 334.985V330.986C276.038 329.876 274.993 328.977 273.704 328.977Z" fill="#288CEF"/>
<path d="M311.61 342.497H168.16C167.458 342.497 166.889 342.987 166.889 343.591V344.422C166.889 345.026 167.458 345.516 168.16 345.516H311.61C312.312 345.516 312.881 345.026 312.881 344.422V343.591C312.881 342.987 312.312 342.497 311.61 342.497Z" fill="#288CEF"/>
<path opacity="0.5" d="M311.61 342.497H168.16C167.458 342.497 166.889 342.987 166.889 343.591V344.422C166.889 345.026 167.458 345.516 168.16 345.516H311.61C312.312 345.516 312.881 345.026 312.881 344.422V343.591C312.881 342.987 312.312 342.497 311.61 342.497Z" fill="#FAFAFA"/>
<path d="M154.416 337.373C157.218 327.237 149.947 317.064 138.175 314.651C126.403 312.238 114.588 318.499 111.786 328.635C108.984 338.771 116.255 348.944 128.027 351.357C139.799 353.769 151.613 347.509 154.416 337.373Z" fill="#288CEF"/>
<path d="M151.186 332.984C151.186 336.064 150.125 339.075 148.138 341.636C146.15 344.197 143.326 346.193 140.021 347.371C136.716 348.55 133.08 348.858 129.572 348.257C126.064 347.657 122.841 346.173 120.312 343.996C117.782 341.818 116.06 339.043 115.362 336.022C114.664 333.002 115.022 329.871 116.391 327.025C117.76 324.18 120.078 321.748 123.052 320.037C126.026 318.326 129.523 317.412 133.1 317.412C135.481 317.394 137.842 317.784 140.046 318.56C142.25 319.337 144.252 320.483 145.936 321.933C147.619 323.382 148.951 325.106 149.852 327.004C150.754 328.901 151.207 330.934 151.186 332.984Z" fill="#FAFAFA"/>
<path d="M148.998 340.402C147.444 342.862 145.148 344.915 142.352 346.346C139.557 347.776 136.365 348.531 133.112 348.531C129.86 348.531 126.668 347.776 123.872 346.346C121.077 344.915 118.781 342.862 117.226 340.402C121.932 337.704 127.459 336.264 133.112 336.264C138.766 336.264 144.293 337.704 148.998 340.402Z" fill="#288CEF"/>
<path opacity="0.7" d="M148.998 340.402C147.444 342.862 145.148 344.915 142.352 346.346C139.557 347.776 136.365 348.531 133.112 348.531C129.86 348.531 126.668 347.776 123.872 346.346C121.077 344.915 118.781 342.862 117.226 340.402C121.932 337.704 127.459 336.264 133.112 336.264C138.766 336.264 144.293 337.704 148.998 340.402Z" fill="#FAFAFA"/>
<path d="M133.1 334.595C137.548 334.595 141.153 331.49 141.153 327.661C141.153 323.831 137.548 320.727 133.1 320.727C128.653 320.727 125.047 323.831 125.047 327.661C125.047 331.49 128.653 334.595 133.1 334.595Z" fill="#288CEF"/>
<path opacity="0.7" d="M133.1 334.595C137.548 334.595 141.153 331.49 141.153 327.661C141.153 323.831 137.548 320.727 133.1 320.727C128.653 320.727 125.047 323.831 125.047 327.661C125.047 331.49 128.653 334.595 133.1 334.595Z" fill="#FAFAFA"/>
<path d="M331.492 240.783H109.21C103.177 240.783 98.2854 244.994 98.2854 250.189V284.332C98.2854 289.527 103.177 293.739 109.21 293.739H331.492C337.525 293.739 342.417 289.527 342.417 284.332V250.189C342.417 244.994 337.525 240.783 331.492 240.783Z" fill="#288CEF"/>
<path d="M334.07 243.004H111.788C105.755 243.004 100.864 247.215 100.864 252.41V286.564C100.864 291.759 105.755 295.971 111.788 295.971H334.07C340.104 295.971 344.995 291.759 344.995 286.564V252.41C344.995 247.215 340.104 243.004 334.07 243.004Z" fill="#288CEF"/>
<path opacity="0.6" d="M334.07 243.004H111.788C105.755 243.004 100.864 247.215 100.864 252.41V286.564C100.864 291.759 105.755 295.971 111.788 295.971H334.07C340.104 295.971 344.995 291.759 344.995 286.564V252.41C344.995 247.215 340.104 243.004 334.07 243.004Z" fill="#FAFAFA"/>
<path d="M336.649 245.222H114.367C108.334 245.222 103.442 249.434 103.442 254.629V288.772C103.442 293.967 108.334 298.178 114.367 298.178H336.649C342.682 298.178 347.574 293.967 347.574 288.772V254.629C347.574 249.434 342.682 245.222 336.649 245.222Z" fill="#288CEF"/>
<path opacity="0.8" d="M336.649 245.222H114.367C108.334 245.222 103.442 249.434 103.442 254.629V288.772C103.442 293.967 108.334 298.178 114.367 298.178H336.649C342.682 298.178 347.574 293.967 347.574 288.772V254.629C347.574 249.434 342.682 245.222 336.649 245.222Z" fill="#FAFAFA"/>
<path d="M204.587 254.177H169.223C167.934 254.177 166.889 255.077 166.889 256.187V260.185C166.889 261.295 167.934 262.195 169.223 262.195H204.587C205.876 262.195 206.921 261.295 206.921 260.185V256.187C206.921 255.077 205.876 254.177 204.587 254.177Z" fill="#288CEF"/>
<path d="M241.76 254.177H214.449C213.16 254.177 212.115 255.077 212.115 256.187V260.185C212.115 261.295 213.16 262.195 214.449 262.195H241.76C243.05 262.195 244.094 261.295 244.094 260.185V256.187C244.094 255.077 243.05 254.177 241.76 254.177Z" fill="#288CEF"/>
<path d="M293.39 267.698H169.223C167.934 267.698 166.889 268.598 166.889 269.707V273.706C166.889 274.816 167.934 275.715 169.223 275.715H293.39C294.679 275.715 295.724 274.816 295.724 273.706V269.707C295.724 268.598 294.679 267.698 293.39 267.698Z" fill="#288CEF"/>
<path d="M254.738 281.218H168.16C167.458 281.218 166.889 281.708 166.889 282.313V283.144C166.889 283.748 167.458 284.238 168.16 284.238H254.738C255.44 284.238 256.009 283.748 256.009 283.144V282.313C256.009 281.708 255.44 281.218 254.738 281.218Z" fill="#288CEF"/>
<path opacity="0.5" d="M254.738 281.218H168.16C167.458 281.218 166.889 281.708 166.889 282.313V283.144C166.889 283.748 167.458 284.238 168.16 284.238H254.738C255.44 284.238 256.009 283.748 256.009 283.144V282.313C256.009 281.708 255.44 281.218 254.738 281.218Z" fill="#FAFAFA"/>
<path d="M154.42 276.096C157.222 265.96 149.951 255.788 138.179 253.375C126.407 250.962 114.592 257.223 111.79 267.359C108.988 277.495 116.259 287.667 128.031 290.08C139.803 292.493 151.617 286.232 154.42 276.096Z" fill="#288CEF"/>
<path d="M151.186 271.705C151.186 274.785 150.125 277.796 148.138 280.357C146.15 282.917 143.326 284.913 140.021 286.092C136.716 287.271 133.08 287.579 129.572 286.978C126.064 286.377 122.841 284.894 120.312 282.716C117.782 280.539 116.06 277.764 115.362 274.743C114.664 271.722 115.022 268.591 116.391 265.746C117.76 262.9 120.078 260.468 123.052 258.757C126.026 257.046 129.523 256.133 133.1 256.133C135.481 256.115 137.842 256.505 140.046 257.281C142.25 258.057 144.252 259.204 145.936 260.653C147.619 262.103 148.951 263.827 149.852 265.724C150.754 267.622 151.207 269.655 151.186 271.705Z" fill="#FAFAFA"/>
<path d="M148.998 279.124C147.444 281.584 145.148 283.637 142.352 285.067C139.557 286.498 136.365 287.253 133.112 287.253C129.86 287.253 126.668 286.498 123.872 285.067C121.077 283.637 118.781 281.584 117.226 279.124C121.932 276.425 127.459 274.985 133.112 274.985C138.766 274.985 144.293 276.425 148.998 279.124Z" fill="#288CEF"/>
<path opacity="0.7" d="M148.998 279.124C147.444 281.584 145.148 283.637 142.352 285.067C139.557 286.498 136.365 287.253 133.112 287.253C129.86 287.253 126.668 286.498 123.872 285.067C121.077 283.637 118.781 281.584 117.226 279.124C121.932 276.425 127.459 274.985 133.112 274.985C138.766 274.985 144.293 276.425 148.998 279.124Z" fill="#FAFAFA"/>
<path d="M133.1 273.316C137.548 273.316 141.153 270.212 141.153 266.382C141.153 262.553 137.548 259.448 133.1 259.448C128.653 259.448 125.047 262.553 125.047 266.382C125.047 270.212 128.653 273.316 133.1 273.316Z" fill="#288CEF"/>
<path opacity="0.7" d="M133.1 273.316C137.548 273.316 141.153 270.212 141.153 266.382C141.153 262.553 137.548 259.448 133.1 259.448C128.653 259.448 125.047 262.553 125.047 266.382C125.047 270.212 128.653 273.316 133.1 273.316Z" fill="#FAFAFA"/>
<path d="M331.492 179.505H109.21C103.177 179.505 98.2854 183.716 98.2854 188.911V223.065C98.2854 228.26 103.177 232.471 109.21 232.471H331.492C337.525 232.471 342.417 228.26 342.417 223.065V188.911C342.417 183.716 337.525 179.505 331.492 179.505Z" fill="#288CEF"/>
<path d="M334.07 181.724H111.788C105.755 181.724 100.864 185.935 100.864 191.13V225.273C100.864 230.468 105.755 234.68 111.788 234.68H334.07C340.104 234.68 344.995 230.468 344.995 225.273V191.13C344.995 185.935 340.104 181.724 334.07 181.724Z" fill="#288CEF"/>
<path opacity="0.6" d="M334.07 181.724H111.788C105.755 181.724 100.864 185.935 100.864 191.13V225.273C100.864 230.468 105.755 234.68 111.788 234.68H334.07C340.104 234.68 344.995 230.468 344.995 225.273V191.13C344.995 185.935 340.104 181.724 334.07 181.724Z" fill="#FAFAFA"/>
<path d="M336.649 183.944H114.367C108.334 183.944 103.442 188.155 103.442 193.35V227.504C103.442 232.699 108.334 236.91 114.367 236.91H336.649C342.682 236.91 347.574 232.699 347.574 227.504V193.35C347.574 188.155 342.682 183.944 336.649 183.944Z" fill="#288CEF"/>
<path opacity="0.8" d="M336.649 183.944H114.367C108.334 183.944 103.442 188.155 103.442 193.35V227.504C103.442 232.699 108.334 236.91 114.367 236.91H336.649C342.682 236.91 347.574 232.699 347.574 227.504V193.35C347.574 188.155 342.682 183.944 336.649 183.944Z" fill="#FAFAFA"/>
<path d="M287.011 192.898H169.223C167.934 192.898 166.889 193.798 166.889 194.908V198.906C166.889 200.016 167.934 200.916 169.223 200.916H287.011C288.3 200.916 289.345 200.016 289.345 198.906V194.908C289.345 193.798 288.3 192.898 287.011 192.898Z" fill="#288CEF"/>
<path d="M247.357 206.419H169.223C167.934 206.419 166.889 207.319 166.889 208.429V212.427C166.889 213.537 167.934 214.437 169.223 214.437H247.357C248.646 214.437 249.691 213.537 249.691 212.427V208.429C249.691 207.319 248.646 206.419 247.357 206.419Z" fill="#288CEF"/>
<path d="M266.2 206.419H258.942C257.653 206.419 256.608 207.319 256.608 208.429V212.427C256.608 213.537 257.653 214.437 258.942 214.437H266.2C267.49 214.437 268.535 213.537 268.535 212.427V208.429C268.535 207.319 267.49 206.419 266.2 206.419Z" fill="#288CEF"/>
<path d="M231.178 219.94H168.16C167.458 219.94 166.889 220.43 166.889 221.035V221.866C166.889 222.47 167.458 222.96 168.16 222.96H231.178C231.88 222.96 232.449 222.47 232.449 221.866V221.035C232.449 220.43 231.88 219.94 231.178 219.94Z" fill="#288CEF"/>
<path opacity="0.5" d="M231.178 219.94H168.16C167.458 219.94 166.889 220.43 166.889 221.035V221.866C166.889 222.47 167.458 222.96 168.16 222.96H231.178C231.88 222.96 232.449 222.47 232.449 221.866V221.035C232.449 220.43 231.88 219.94 231.178 219.94Z" fill="#FAFAFA"/>
<path d="M312.649 219.94H240.392C239.69 219.94 239.121 220.43 239.121 221.035V221.866C239.121 222.47 239.69 222.96 240.392 222.96H312.649C313.351 222.96 313.92 222.47 313.92 221.866V221.035C313.92 220.43 313.351 219.94 312.649 219.94Z" fill="#288CEF"/>
<path opacity="0.5" d="M312.649 219.94H240.392C239.69 219.94 239.121 220.43 239.121 221.035V221.866C239.121 222.47 239.69 222.96 240.392 222.96H312.649C313.351 222.96 313.92 222.47 313.92 221.866V221.035C313.92 220.43 313.351 219.94 312.649 219.94Z" fill="#FAFAFA"/>
<path d="M148.596 223.763C157.152 216.395 157.152 204.45 148.596 197.083C140.039 189.715 126.166 189.715 117.61 197.083C109.053 204.45 109.053 216.395 117.61 223.763C126.166 231.13 140.039 231.13 148.596 223.763Z" fill="#288CEF"/>
<path d="M151.186 210.428C151.186 213.508 150.125 216.518 148.138 219.079C146.15 221.64 143.326 223.636 140.021 224.815C136.716 225.993 133.08 226.302 129.572 225.701C126.064 225.1 122.841 223.617 120.312 221.439C117.782 219.261 116.06 216.487 115.362 213.466C114.664 210.445 115.022 207.314 116.391 204.469C117.76 201.623 120.078 199.191 123.052 197.48C126.026 195.769 129.523 194.856 133.1 194.856C135.481 194.837 137.842 195.228 140.046 196.004C142.25 196.78 144.252 197.926 145.936 199.376C147.619 200.826 148.951 202.55 149.852 204.447C150.754 206.345 151.207 208.378 151.186 210.428Z" fill="#FAFAFA"/>
<path d="M148.998 217.846C147.444 220.305 145.148 222.358 142.352 223.789C139.557 225.22 136.365 225.975 133.112 225.975C129.86 225.975 126.668 225.22 123.872 223.789C121.077 222.358 118.781 220.305 117.226 217.846C121.932 215.147 127.459 213.707 133.112 213.707C138.766 213.707 144.293 215.147 148.998 217.846Z" fill="#288CEF"/>
<path opacity="0.7" d="M148.998 217.846C147.444 220.305 145.148 222.358 142.352 223.789C139.557 225.22 136.365 225.975 133.112 225.975C129.86 225.975 126.668 225.22 123.872 223.789C121.077 222.358 118.781 220.305 117.226 217.846C121.932 215.147 127.459 213.707 133.112 213.707C138.766 213.707 144.293 215.147 148.998 217.846Z" fill="#FAFAFA"/>
<path d="M141.153 205.062C141.151 206.433 140.676 207.773 139.79 208.911C138.904 210.05 137.645 210.937 136.173 211.461C134.702 211.984 133.083 212.12 131.522 211.851C129.96 211.582 128.527 210.921 127.402 209.951C126.277 208.981 125.511 207.745 125.201 206.4C124.891 205.056 125.052 203.662 125.661 202.396C126.271 201.129 127.303 200.047 128.627 199.286C129.952 198.524 131.508 198.118 133.1 198.118C134.159 198.118 135.207 198.297 136.185 198.646C137.163 198.996 138.051 199.507 138.799 200.152C139.547 200.797 140.14 201.563 140.544 202.405C140.948 203.248 141.155 204.151 141.153 205.062Z" fill="#288CEF"/>
<path opacity="0.7" d="M141.153 205.062C141.151 206.433 140.676 207.773 139.79 208.911C138.904 210.05 137.645 210.937 136.173 211.461C134.702 211.984 133.083 212.12 131.522 211.851C129.96 211.582 128.527 210.921 127.402 209.951C126.277 208.981 125.511 207.745 125.201 206.4C124.891 205.056 125.052 203.662 125.661 202.396C126.271 201.129 127.303 200.047 128.627 199.286C129.952 198.524 131.508 198.118 133.1 198.118C134.159 198.118 135.207 198.297 136.185 198.646C137.163 198.996 138.051 199.507 138.799 200.152C139.547 200.797 140.14 201.563 140.544 202.405C140.948 203.248 141.155 204.151 141.153 205.062Z" fill="#FAFAFA"/>
<path d="M159.275 53.2642H153.703V54.3163H159.275V53.2642Z" fill="#288CEF"/>
<path d="M144.88 53.2642H131.707V54.3163H144.88V53.2642Z" fill="#288CEF"/>
<path d="M331.492 56.9453H109.21C103.177 56.9453 98.2854 61.1567 98.2854 66.3518V100.505C98.2854 105.7 103.177 109.912 109.21 109.912H331.492C337.525 109.912 342.417 105.7 342.417 100.505V66.3518C342.417 61.1567 337.525 56.9453 331.492 56.9453Z" fill="#288CEF"/>
<path d="M334.07 59.167H111.788C105.755 59.167 100.864 63.3784 100.864 68.5735V102.727C100.864 107.922 105.755 112.134 111.788 112.134H334.07C340.104 112.134 344.995 107.922 344.995 102.727V68.5735C344.995 63.3784 340.104 59.167 334.07 59.167Z" fill="#288CEF"/>
<path opacity="0.6" d="M334.07 59.167H111.788C105.755 59.167 100.864 63.3784 100.864 68.5735V102.727C100.864 107.922 105.755 112.134 111.788 112.134H334.07C340.104 112.134 344.995 107.922 344.995 102.727V68.5735C344.995 63.3784 340.104 59.167 334.07 59.167Z" fill="#FAFAFA"/>
<path d="M336.649 61.3867H114.367C108.334 61.3867 103.442 65.5981 103.442 70.7932V104.947C103.442 110.142 108.334 114.353 114.367 114.353H336.649C342.682 114.353 347.574 110.142 347.574 104.947V70.7932C347.574 65.5981 342.682 61.3867 336.649 61.3867Z" fill="#288CEF"/>
<path opacity="0.8" d="M336.649 61.3867H114.367C108.334 61.3867 103.442 65.5981 103.442 70.7932V104.947C103.442 110.142 108.334 114.353 114.367 114.353H336.649C342.682 114.353 347.574 110.142 347.574 104.947V70.7932C347.574 65.5981 342.682 61.3867 336.649 61.3867Z" fill="#FAFAFA"/>
<path d="M277.296 70.3418H169.223C167.934 70.3418 166.889 71.2415 166.889 72.3514V76.3497C166.889 77.4596 167.934 78.3594 169.223 78.3594H277.296C278.585 78.3594 279.63 77.4596 279.63 76.3497V72.3514C279.63 71.2415 278.585 70.3418 277.296 70.3418Z" fill="#288CEF"/>
<path d="M314.567 83.8613H169.223C167.934 83.8613 166.889 84.7611 166.889 85.871V89.8693C166.889 90.9792 167.934 91.8789 169.223 91.8789H314.567C315.856 91.8789 316.901 90.9792 316.901 89.8693V85.871C316.901 84.7611 315.856 83.8613 314.567 83.8613Z" fill="#288CEF"/>
<path d="M207.826 97.3813H168.16C167.458 97.3813 166.889 97.8713 166.889 98.4756V99.3068C166.889 99.9112 167.458 100.401 168.16 100.401H207.826C208.528 100.401 209.097 99.9112 209.097 99.3068V98.4756C209.097 97.8713 208.528 97.3813 207.826 97.3813Z" fill="#288CEF"/>
<path opacity="0.5" d="M207.826 97.3813H168.16C167.458 97.3813 166.889 97.8713 166.889 98.4756V99.3068C166.889 99.9112 167.458 100.401 168.16 100.401H207.826C208.528 100.401 209.097 99.9112 209.097 99.3068V98.4756C209.097 97.8713 208.528 97.3813 207.826 97.3813Z" fill="#FAFAFA"/>
<path d="M154.419 92.2483C157.221 82.1124 149.95 71.9396 138.178 69.5267C126.406 67.1139 114.592 73.3747 111.789 83.5106C108.987 93.6465 116.258 103.819 128.03 106.232C139.802 108.645 151.617 102.384 154.419 92.2483Z" fill="#288CEF"/>
<path d="M151.186 87.8693C151.186 90.9492 150.125 93.9599 148.138 96.5207C146.15 99.0816 143.326 101.077 140.021 102.256C136.716 103.435 133.08 103.743 129.572 103.142C126.064 102.541 122.841 101.058 120.312 98.8805C117.782 96.7027 116.06 93.928 115.362 90.9073C114.664 87.8865 115.022 84.7555 116.391 81.91C117.76 79.0646 120.078 76.6325 123.052 74.9214C126.026 73.2103 129.523 72.2971 133.1 72.2971C135.478 72.2873 137.835 72.6834 140.035 73.4625C142.234 74.2417 144.232 75.3883 145.914 76.8363C147.596 78.2843 148.927 80.0048 149.832 81.8985C150.737 83.7922 151.197 85.8216 151.186 87.8693Z" fill="#FAFAFA"/>
<path d="M148.998 95.2889C147.444 97.7485 145.148 99.8018 142.352 101.232C139.557 102.663 136.365 103.418 133.112 103.418C129.86 103.418 126.668 102.663 123.872 101.232C121.077 99.8018 118.781 97.7485 117.226 95.2889C121.932 92.5903 127.459 91.1504 133.112 91.1504C138.766 91.1504 144.293 92.5903 148.998 95.2889Z" fill="#288CEF"/>
<path opacity="0.7" d="M148.998 95.2889C147.444 97.7485 145.148 99.8018 142.352 101.232C139.557 102.663 136.365 103.418 133.112 103.418C129.86 103.418 126.668 102.663 123.872 101.232C121.077 99.8018 118.781 97.7485 117.226 95.2889C121.932 92.5903 127.459 91.1504 133.112 91.1504C138.766 91.1504 144.293 92.5903 148.998 95.2889Z" fill="#FAFAFA"/>
<path d="M133.1 89.4688C137.548 89.4688 141.153 86.3644 141.153 82.5349C141.153 78.7055 137.548 75.6011 133.1 75.6011C128.653 75.6011 125.047 78.7055 125.047 82.5349C125.047 86.3644 128.653 89.4688 133.1 89.4688Z" fill="#288CEF"/>
<path opacity="0.7" d="M133.1 89.4688C137.548 89.4688 141.153 86.3644 141.153 82.5349C141.153 78.7055 137.548 75.6011 133.1 75.6011C128.653 75.6011 125.047 78.7055 125.047 82.5349C125.047 86.3644 128.653 89.4688 133.1 89.4688Z" fill="#FAFAFA"/>
<path d="M487.737 216.864L479.72 220.452L488.702 226.46C488.702 226.46 494.739 222.104 492.368 219.094L487.737 216.864Z" fill="#E4897B"/>
<path d="M475.138 227.764L482.8 232.352L488.702 226.46L479.721 220.452L475.138 227.764Z" fill="#E4897B"/>
<path d="M490.841 157.195C491.941 158.437 492.881 159.552 493.835 160.762C494.788 161.972 495.692 163.14 496.596 164.34C498.38 166.76 500.079 169.243 501.643 171.789C503.247 174.362 504.699 177.002 505.994 179.701L506.959 181.806L507.827 183.91C508.132 184.605 508.364 185.341 508.621 186.067L509 187.119L509.085 187.393L509.232 187.845C509.325 188.171 509.399 188.502 509.452 188.834C509.736 190.828 509.57 192.85 508.963 194.79C508.512 196.344 507.936 197.87 507.24 199.356C505.948 202.081 504.446 204.727 502.743 207.279C499.479 212.218 495.765 216.925 491.635 221.357L486.014 218.201C488.714 213.35 491.354 208.352 493.664 203.47C494.795 201.086 495.778 198.652 496.609 196.178C496.992 195.068 497.281 193.936 497.476 192.79C497.636 192.046 497.636 191.283 497.476 190.539C497.476 190.539 497.476 190.602 497.476 190.539L497.378 190.328L496.975 189.455C496.719 188.876 496.474 188.308 496.156 187.73L495.277 186.004L494.311 184.268C492.975 181.974 491.541 179.694 490.01 177.429C488.458 175.177 486.857 172.925 485.122 170.716C483.386 168.506 481.663 166.265 480.026 164.234L490.841 157.195Z" fill="#E4897B"/>
<path d="M507.533 173.345L487.407 185.498C487.407 185.498 486.185 183.225 484.486 179.911C483.105 177.27 481.382 173.976 479.672 170.651C478.975 169.305 478.291 167.958 477.619 166.643C472.963 157.51 478.401 150.934 487.957 152.154C496.376 153.238 507.533 173.345 507.533 173.345Z" fill="#263238"/>
<path d="M485.452 160.7C485.843 163.961 485.879 174.052 484.486 179.912C483.105 177.272 481.382 173.978 479.672 170.653L485.452 160.7Z" fill="#288CEF"/>
<path opacity="0.8" d="M485.452 160.7C485.843 163.961 485.879 174.052 484.486 179.912C483.105 177.272 481.382 173.978 479.672 170.653L485.452 160.7Z" fill="#288CEF"/>
<g opacity="0.8">
<path d="M485.452 160.7C485.843 163.961 485.879 174.052 484.486 179.912C483.105 177.272 481.382 173.978 479.672 170.653L485.452 160.7Z" fill="#231B1B"/>
<path opacity="0.8" d="M485.452 160.7C485.843 163.961 485.879 174.052 484.486 179.912C483.105 177.272 481.382 173.978 479.672 170.653L485.452 160.7Z" fill="#231B1B"/>
</g>
<path d="M515.562 243.442L300.759 194.242C297.969 193.586 295.592 192.01 294.142 189.855C292.692 187.701 292.285 185.141 293.011 182.731L303.203 149.735C303.973 147.339 305.806 145.299 308.307 144.057C310.809 142.815 313.777 142.47 316.571 143.096L531.374 192.285C534.167 192.941 536.546 194.519 537.996 196.675C539.447 198.832 539.851 201.394 539.122 203.806L528.93 236.739C528.176 239.147 526.349 241.202 523.846 242.456C521.343 243.711 518.366 244.065 515.562 243.442Z" fill="#288CEF"/>
<path opacity="0.8" d="M515.562 243.442L300.759 194.242C297.969 193.586 295.592 192.01 294.142 189.855C292.692 187.701 292.285 185.141 293.011 182.731L303.203 149.735C303.973 147.339 305.806 145.299 308.307 144.057C310.809 142.815 313.777 142.47 316.571 143.096L531.374 192.285C534.167 192.941 536.546 194.519 537.996 196.675C539.447 198.832 539.851 201.394 539.122 203.806L528.93 236.739C528.176 239.147 526.349 241.202 523.846 242.456C521.343 243.711 518.366 244.065 515.562 243.442Z" fill="#FAFAFA"/>
<path d="M517.382 246.209L302.591 196.957C299.8 196.303 297.419 194.728 295.967 192.573C294.514 190.418 294.107 187.858 294.832 185.446L305.035 152.46C305.795 150.056 307.624 148.007 310.127 146.756C312.629 145.506 315.603 145.154 318.404 145.779L533.195 194.979C535.987 195.633 538.367 197.208 539.82 199.362C541.272 201.517 541.68 204.078 540.955 206.489L530.763 239.486C530.014 241.9 528.188 243.961 525.681 245.22C523.175 246.48 520.192 246.835 517.382 246.209Z" fill="#288CEF"/>
<path opacity="0.4" d="M517.382 246.209L302.591 196.957C299.8 196.303 297.419 194.728 295.967 192.573C294.514 190.418 294.107 187.858 294.832 185.446L305.035 152.46C305.795 150.056 307.624 148.007 310.127 146.756C312.629 145.506 315.603 145.154 318.404 145.779L533.195 194.979C535.987 195.633 538.367 197.208 539.82 199.362C541.272 201.517 541.68 204.078 540.955 206.489L530.763 239.486C530.014 241.9 528.188 243.961 525.681 245.22C523.175 246.48 520.192 246.835 517.382 246.209Z" fill="#FAFAFA"/>
<path d="M519.216 248.881L304.425 199.682C301.633 199.028 299.253 197.453 297.8 195.298C296.348 193.143 295.94 190.583 296.665 188.171L306.856 155.175C307.618 152.77 309.451 150.722 311.956 149.473C314.46 148.224 317.436 147.876 320.237 148.504L535.028 197.693C537.836 198.346 540.229 199.931 541.684 202.1C543.138 204.27 543.535 206.846 542.788 209.267L532.584 242.253C531.812 244.647 529.977 246.684 527.476 247.924C524.975 249.164 522.008 249.508 519.216 248.881Z" fill="#288CEF"/>
<path opacity="0.2" d="M519.216 248.881L304.425 199.682C301.633 199.028 299.253 197.453 297.8 195.298C296.348 193.143 295.94 190.583 296.665 188.171L306.856 155.175C307.618 152.77 309.451 150.722 311.956 149.473C314.46 148.224 317.436 147.876 320.237 148.504L535.028 197.693C537.836 198.346 540.229 199.931 541.684 202.1C543.138 204.27 543.535 206.846 542.788 209.267L532.584 242.253C531.812 244.647 529.977 246.684 527.476 247.924C524.975 249.164 522.008 249.508 519.216 248.881Z" fill="#231B1B"/>
<path d="M507.115 200.605L370.543 169.316C369.297 169.031 368.019 169.669 367.687 170.741L366.493 174.605C366.162 175.678 366.903 176.779 368.148 177.064L504.721 208.353C505.967 208.638 507.245 208 507.577 206.928L508.771 203.064C509.102 201.991 508.361 200.89 507.115 200.605Z" fill="#288CEF"/>
<path opacity="0.7" d="M507.115 200.605L370.543 169.316C369.297 169.031 368.019 169.669 367.687 170.741L366.493 174.605C366.162 175.678 366.903 176.779 368.148 177.064L504.721 208.353C505.967 208.638 507.245 208 507.577 206.928L508.771 203.064C509.102 201.991 508.361 200.89 507.115 200.605Z" fill="#FAFAFA"/>
<path d="M452.779 202.139L366.513 182.375C365.268 182.09 363.989 182.728 363.658 183.8L362.464 187.664C362.132 188.737 362.873 189.838 364.119 190.123L450.385 209.887C451.63 210.172 452.909 209.534 453.24 208.461L454.434 204.598C454.766 203.525 454.025 202.424 452.779 202.139Z" fill="#288CEF"/>
<path opacity="0.7" d="M452.779 202.139L366.513 182.375C365.268 182.09 363.989 182.728 363.658 183.8L362.464 187.664C362.132 188.737 362.873 189.838 364.119 190.123L450.385 209.887C451.63 210.172 452.909 209.534 453.24 208.461L454.434 204.598C454.766 203.525 454.025 202.424 452.779 202.139Z" fill="#FAFAFA"/>
<path d="M487.321 224.036L361.448 195.198C360.769 195.042 360.073 195.39 359.893 195.974L359.645 196.777C359.464 197.361 359.868 197.961 360.546 198.116L486.419 226.954C487.098 227.109 487.794 226.762 487.974 226.178L488.222 225.375C488.403 224.791 487.999 224.191 487.321 224.036Z" fill="#FAFAFA"/>
<path d="M347.547 188.235C354.445 179.691 351.992 167.951 342.069 162.012C332.147 156.073 318.511 158.184 311.614 166.728C304.716 175.272 307.169 187.012 317.092 192.951C327.014 198.89 340.65 196.778 347.547 188.235Z" fill="#288CEF"/>
<path d="M347.903 182.236C346.983 185.212 345.059 187.886 342.374 189.921C339.689 191.955 336.363 193.259 332.818 193.666C329.273 194.073 325.667 193.566 322.456 192.209C319.245 190.852 316.574 188.705 314.78 186.041C312.986 183.377 312.15 180.314 312.377 177.241C312.604 174.168 313.885 171.221 316.057 168.774C318.229 166.327 321.195 164.49 324.579 163.494C327.964 162.499 331.616 162.39 335.072 163.181C337.376 163.695 339.538 164.598 341.433 165.837C343.328 167.076 344.918 168.627 346.112 170.4C347.306 172.172 348.079 174.131 348.386 176.163C348.694 178.195 348.53 180.259 347.903 182.236Z" fill="#FAFAFA"/>
<path d="M343.578 188.918C341.344 190.963 338.509 192.451 335.373 193.222C332.237 193.993 328.917 194.019 325.765 193.298C322.614 192.576 319.747 191.134 317.47 189.123C315.193 187.113 313.591 184.609 312.832 181.878C318.19 180.31 323.967 180.142 329.436 181.394C334.904 182.647 339.821 185.264 343.565 188.918H343.578Z" fill="#288CEF"/>
<path opacity="0.7" d="M343.578 188.918C341.344 190.963 338.509 192.451 335.373 193.222C332.237 193.993 328.917 194.019 325.765 193.298C322.614 192.576 319.747 191.134 317.47 189.123C315.193 187.113 313.591 184.609 312.832 181.878C318.19 180.31 323.967 180.142 329.436 181.394C334.904 182.647 339.821 185.264 343.565 188.918H343.578Z" fill="#FAFAFA"/>
<path d="M339.801 174.872C339.391 176.196 338.533 177.386 337.338 178.291C336.142 179.196 334.662 179.776 333.083 179.956C331.505 180.137 329.9 179.911 328.471 179.307C327.042 178.703 325.853 177.748 325.055 176.562C324.256 175.376 323.883 174.013 323.984 172.645C324.085 171.277 324.654 169.965 325.62 168.876C326.586 167.786 327.906 166.967 329.412 166.523C330.918 166.079 332.543 166.03 334.082 166.38C335.106 166.614 336.066 167.019 336.908 167.572C337.749 168.125 338.456 168.816 338.987 169.605C339.518 170.393 339.864 171.265 340.003 172.168C340.143 173.072 340.075 173.991 339.801 174.872Z" fill="#288CEF"/>
<path opacity="0.7" d="M339.801 174.872C339.391 176.196 338.533 177.386 337.338 178.291C336.142 179.196 334.662 179.776 333.083 179.956C331.505 180.137 329.9 179.911 328.471 179.307C327.042 178.703 325.853 177.748 325.055 176.562C324.256 175.376 323.883 174.013 323.984 172.645C324.085 171.277 324.654 169.965 325.62 168.876C326.586 167.786 327.906 166.967 329.412 166.523C330.918 166.079 332.543 166.03 334.082 166.38C335.106 166.614 336.066 167.019 336.908 167.572C337.749 168.125 338.456 168.816 338.987 169.605C339.518 170.393 339.864 171.265 340.003 172.168C340.143 173.072 340.075 173.991 339.801 174.872Z" fill="#FAFAFA"/>
<path d="M475.284 129.543C472.999 134.91 469.846 144.884 473.659 149.198C473.659 149.198 470.861 154.575 458.909 152.923C445.761 151.103 453.667 146.441 453.667 146.441C461.121 145.957 461.781 141.349 461.341 136.867L475.284 129.543Z" fill="#E4897B"/>
<path d="M450.918 148.23C451.59 147.252 450.991 143.432 450.991 143.432C450.991 143.432 470.006 142.222 476.653 144.642C480.209 145.937 476.653 151.387 476.653 151.387L450.918 148.23Z" fill="#288CEF"/>
<path opacity="0.1" d="M450.918 148.23C451.59 147.252 450.991 143.432 450.991 143.432C450.991 143.432 470.006 142.222 476.653 144.642C480.209 145.937 476.653 151.387 476.653 151.387L450.918 148.23Z" fill="#231B1B"/>
<path d="M453.362 120.116C453.24 120.726 452.775 121.168 452.311 121.105C451.847 121.042 451.565 120.495 451.675 119.885C451.785 119.274 452.262 118.833 452.726 118.896C453.191 118.959 453.435 119.506 453.362 120.116Z" fill="#263238"/>
<path d="M453.276 120.421C452.085 122.169 450.617 123.766 448.914 125.166C449.339 125.539 449.853 125.826 450.421 126.008C450.989 126.189 451.597 126.261 452.201 126.218L453.276 120.421Z" fill="#DE5753"/>
<path d="M456.221 118.222C456.144 118.226 456.067 118.209 456 118.176C455.932 118.142 455.878 118.093 455.843 118.033C455.609 117.623 455.266 117.267 454.841 116.995C454.416 116.722 453.921 116.541 453.399 116.465C453.299 116.445 453.211 116.394 453.15 116.323C453.09 116.251 453.062 116.163 453.071 116.075C453.08 115.987 453.125 115.905 453.199 115.843C453.272 115.781 453.369 115.744 453.472 115.739C454.134 115.827 454.762 116.049 455.304 116.387C455.846 116.726 456.286 117.171 456.588 117.686C456.64 117.771 456.652 117.871 456.62 117.963C456.588 118.056 456.515 118.134 456.417 118.18C456.357 118.209 456.29 118.223 456.221 118.222Z" fill="#263238"/>
<path d="M397.871 362.191L389.048 361.17L389.464 343.304L398.287 344.325L397.871 362.191Z" fill="#E4897B"/>
<path d="M463.737 370.587H454.828L447.9 352.827H456.796L463.737 370.587Z" fill="#E4897B"/>
<path d="M453.643 369.692H464.507C464.683 369.695 464.853 369.748 464.99 369.843C465.127 369.939 465.224 370.07 465.264 370.218L467.024 377.036C467.064 377.202 467.061 377.374 467.014 377.538C466.966 377.703 466.876 377.856 466.751 377.987C466.625 378.117 466.467 378.221 466.288 378.292C466.108 378.362 465.913 378.397 465.716 378.393C462.221 378.341 459.68 378.172 455.28 378.172C452.568 378.172 446.995 378.414 443.256 378.414C439.517 378.414 439.028 375.258 440.555 374.942C447.423 373.648 450.001 371.87 452.201 370.165C452.598 369.86 453.111 369.692 453.643 369.692Z" fill="#263238"/>
<path d="M388.743 359.435L398.384 360.55C398.559 360.571 398.72 360.644 398.84 360.755C398.96 360.866 399.032 361.009 399.044 361.16L399.729 368.115C399.745 368.283 399.718 368.452 399.648 368.609C399.579 368.766 399.469 368.908 399.326 369.023C399.184 369.138 399.013 369.225 398.827 369.275C398.641 369.326 398.443 369.339 398.25 369.315C394.779 368.852 389.794 368.094 385.419 367.589C380.311 366.989 376.865 366.663 370.914 365.969C367.248 365.548 366.783 362.276 368.348 362.16C375.447 361.665 380.067 362.244 386.519 359.772C387.21 359.485 387.98 359.368 388.743 359.435Z" fill="#263238"/>
<path d="M389.463 343.304L389.243 352.521L398.078 353.542L398.286 344.335L389.463 343.304Z" fill="#CE6F64"/>
<path d="M456.808 352.836H447.9L451.48 361.99H460.388L456.808 352.836Z" fill="#CE6F64"/>
<path d="M439.92 147.209C439.92 147.209 425.904 168.937 429.105 212.813L476.287 218.295C477.594 212.097 477.814 181.142 489.411 152.565C484.33 151.088 479.141 149.9 473.879 149.009C467.254 147.894 460.558 147.114 453.826 146.673C449.182 146.539 444.532 146.718 439.92 147.209Z" fill="#263238"/>
<path d="M445.346 158.278C443.39 161.193 441.313 164.013 439.236 166.875L432.918 175.292C430.816 178.112 428.616 180.89 426.405 183.709C425.305 185.098 424.168 186.477 423.032 187.855L421.309 189.959C420.673 190.706 419.928 191.559 419.219 192.264C416.436 195.003 413.368 197.517 410.054 199.776C406.865 201.965 403.627 203.985 400.278 205.879C393.669 209.646 386.773 213.027 379.639 216.001L376.376 211.003C382.486 207.141 388.596 203.069 394.413 198.934C397.309 196.83 400.144 194.726 402.796 192.527C405.38 190.449 407.759 188.19 409.908 185.772C410.421 185.193 410.812 184.719 411.276 184.057L412.779 181.952L415.773 177.743L421.761 169.252L427.749 160.73C429.79 157.91 431.781 155.048 433.859 152.26L445.346 158.278Z" fill="#E4897B"/>
<path d="M449.696 156.543C448.559 163.803 433.81 181.08 433.81 181.08L413.268 166.149C413.268 166.149 424.009 155.806 432.82 149.904C441.631 144.001 450.918 148.567 449.696 156.543Z" fill="#263238"/>
<path d="M380.8 208.814L373.113 211.066L380.812 217.978C380.812 217.978 385.504 217.494 385.077 211.918L380.8 208.814Z" fill="#E4897B"/>
<path d="M368.017 216.328L376.804 220.042L380.812 217.98L373.113 211.067L368.017 216.328Z" fill="#E4897B"/>
<path d="M477.606 121.317C475.675 128.745 474.979 133.175 469.871 136.416C462.172 141.287 452.066 136.416 451.382 128.598C450.759 121.601 454.022 110.637 463.113 108.827C465.113 108.421 467.2 108.461 469.177 108.945C471.153 109.429 472.953 110.34 474.406 111.592C475.858 112.843 476.914 114.394 477.475 116.096C478.035 117.798 478.08 119.595 477.606 121.317Z" fill="#E4897B"/>
<path d="M489.545 121.063C489.431 120.491 489.177 119.947 488.8 119.466C488.423 118.986 487.931 118.579 487.358 118.275C491.537 116.696 489.448 114.866 485.879 112.193C481.272 108.647 479.354 101.471 479.562 99.9352C478.107 101.84 478.498 104.649 479.733 107.174C478.195 105.716 476.955 104.044 476.067 102.229C472.498 94.5165 464.788 101.261 457.346 101.482C444.845 101.85 454.743 96.221 463.92 96.3894C450.246 92.7804 436.608 97.2522 438.832 105.122C441.056 112.993 456.356 103.018 456.27 110.278C456.27 111.751 458.14 113.203 460.914 114.35C457.065 121.168 466.45 134.868 471.912 135.309C477.374 135.751 486.942 127.565 487.346 120.474C488.116 120.548 488.862 120.748 489.545 121.063Z" fill="#263238"/>
<path d="M465.191 123.008C464.646 124.862 463.277 126.457 461.378 127.449C458.836 128.732 456.82 126.943 456.881 124.534C456.942 122.377 458.348 119.094 461.195 118.789C461.819 118.732 462.45 118.81 463.03 119.016C463.611 119.222 464.122 119.549 464.519 119.968C464.916 120.386 465.185 120.884 465.302 121.415C465.419 121.946 465.381 122.493 465.191 123.008Z" fill="#E4897B"/>
<path d="M463.602 360.212H447.252C447.252 360.212 425.72 312.938 423.435 288.412C422.946 283.151 423.924 276.217 425.733 268.757C428.812 256.004 434.287 241.621 438.686 230.878C442.633 221.409 445.798 214.728 445.798 214.728L476.262 218.273C473.268 237.307 449.097 267.578 448.816 293.609C448.584 317.62 463.602 360.212 463.602 360.212Z" fill="#288CEF"/>
<path opacity="0.1" d="M463.602 360.212H447.252C447.252 360.212 425.72 312.938 423.435 288.412C422.946 283.151 423.924 276.217 425.733 268.757C428.812 256.004 434.287 241.621 438.686 230.878C442.633 221.409 445.798 214.728 445.798 214.728L476.262 218.273C473.268 237.307 449.097 267.578 448.816 293.609C448.584 317.62 463.602 360.212 463.602 360.212Z" fill="#231B1B"/>
<path d="M446.433 236.855C445.37 249.576 434.005 263.107 425.769 268.757C428.848 256.004 434.323 241.621 438.722 230.878C441.032 230.636 444.686 234.561 446.433 236.855Z" fill="#288CEF"/>
<path opacity="0.2" d="M446.433 236.855C445.37 249.576 434.005 263.107 425.769 268.757C428.848 256.004 434.323 241.621 438.722 230.878C441.032 230.636 444.686 234.561 446.433 236.855Z" fill="#231B1B"/>
<path d="M429.105 212.813C429.105 212.813 387.215 260.845 384.539 284.087C381.752 308.288 386.213 350.375 386.213 350.375L401.158 352.111C401.158 352.111 405.667 312.591 410.054 288.98C414.82 263.265 460.156 236.676 463.321 216.769L429.105 212.813Z" fill="#288CEF"/>
<path opacity="0.1" d="M429.105 212.813C429.105 212.813 387.215 260.845 384.539 284.087C381.752 308.288 386.213 350.375 386.213 350.375L401.158 352.111C401.158 352.111 405.667 312.591 410.054 288.98C414.82 263.265 460.156 236.676 463.321 216.769L429.105 212.813Z" fill="#231B1B"/>
<path d="M444.405 360.519H465.729V355.573L441.9 355.258L444.405 360.519Z" fill="#288CEF"/>
<path opacity="0.4" d="M444.405 360.519H465.729V355.573L441.9 355.258L444.405 360.519Z" fill="#FAFAFA"/>
<path d="M383.195 350.29L403.956 352.742L404.726 347.797L381.521 344.788L383.195 350.29Z" fill="#288CEF"/>
<path opacity="0.4" d="M383.195 350.29L403.956 352.742L404.726 347.797L381.521 344.788L383.195 350.29Z" fill="#FAFAFA"/>
<path d="M450.698 371.039C450.092 371.077 449.488 370.936 448.987 370.64C448.825 370.526 448.699 370.378 448.622 370.21C448.545 370.043 448.519 369.861 448.547 369.682C448.547 369.575 448.582 369.471 448.646 369.38C448.711 369.289 448.804 369.215 448.914 369.167C449.892 368.746 452.776 370.219 453.093 370.429C453.127 370.448 453.154 370.475 453.171 370.507C453.189 370.538 453.195 370.573 453.191 370.608C453.186 370.644 453.169 370.678 453.14 370.704C453.111 370.731 453.074 370.749 453.032 370.755C452.27 370.929 451.487 371.025 450.698 371.039ZM449.378 369.451C449.29 369.433 449.198 369.433 449.11 369.451C449.11 369.451 448.987 369.524 448.975 369.661C448.955 369.783 448.97 369.907 449.019 370.023C449.068 370.139 449.15 370.242 449.256 370.324C450.253 370.713 451.384 370.761 452.421 370.461C451.492 369.959 450.458 369.616 449.378 369.451Z" fill="#288CEF"/>
<path d="M452.983 370.765H452.885C451.957 370.334 450.185 368.661 450.368 367.798C450.399 367.664 450.483 367.544 450.606 367.458C450.728 367.371 450.882 367.324 451.04 367.324C451.199 367.304 451.362 367.315 451.516 367.355C451.67 367.395 451.812 367.463 451.932 367.556C452.971 368.282 453.154 370.491 453.154 370.586C453.161 370.619 453.155 370.654 453.138 370.684C453.12 370.715 453.092 370.739 453.056 370.754L452.983 370.765ZM451.187 367.608H451.089C450.82 367.608 450.796 367.745 450.784 367.787C450.674 368.292 451.81 369.565 452.727 370.165C452.659 369.294 452.294 368.459 451.676 367.766C451.534 367.679 451.361 367.638 451.187 367.651V367.608Z" fill="#288CEF"/>
<path d="M386.494 360.423C385.101 360.423 383.439 360.265 382.828 359.623C382.704 359.497 382.616 359.348 382.571 359.187C382.527 359.026 382.527 358.858 382.571 358.697C382.597 358.6 382.649 358.509 382.723 358.432C382.798 358.355 382.892 358.295 382.999 358.256C384.148 357.877 387.447 359.834 387.826 360.055C387.862 360.077 387.889 360.108 387.904 360.143C387.92 360.179 387.922 360.218 387.911 360.255C387.899 360.291 387.873 360.323 387.838 360.345C387.802 360.368 387.76 360.38 387.716 360.381C387.374 360.402 386.934 360.423 386.494 360.423ZM383.341 358.571C383.265 358.555 383.185 358.555 383.109 358.571C383.067 358.583 383.029 358.605 383.001 358.635C382.973 358.665 382.955 358.701 382.95 358.74C382.918 358.845 382.916 358.955 382.944 359.061C382.971 359.167 383.028 359.266 383.109 359.35C383.586 359.823 385.04 360.076 387.019 360.013C385.918 359.325 384.667 358.835 383.341 358.571Z" fill="#288CEF"/>
<path d="M387.667 360.392H387.557C386.555 359.855 384.71 357.972 385.003 357.13C385.064 356.94 385.26 356.709 385.798 356.709H385.859C386.07 356.718 386.276 356.762 386.467 356.84C386.658 356.917 386.829 357.027 386.971 357.161C387.642 358.081 387.958 359.16 387.875 360.244C387.876 360.277 387.867 360.309 387.847 360.337C387.828 360.365 387.799 360.388 387.765 360.402L387.667 360.392ZM385.798 357.046C385.455 357.046 385.419 357.161 385.407 357.204C385.223 357.709 386.457 359.161 387.459 359.855C387.493 358.976 387.211 358.109 386.653 357.372C386.552 357.272 386.429 357.191 386.29 357.135C386.151 357.079 386 357.049 385.846 357.046H385.798Z" fill="#288CEF"/>
</svg>
